<?xml version="1.0" encoding="utf-8"?>
<!-- Generator: Adobe Illustrator 22.1.0, SVG Export Plug-In . SVG Version: 6.00 Build 0)  -->
<svg version="1.1" id="Layer_1" xmlns="http://www.w3.org/2000/svg" xmlns:xlink="http://www.w3.org/1999/xlink" x="0px" y="0px"
	 viewBox="0 0 1366 464" style="enable-background:new 0 0 1366 464;" xml:space="preserve">
<style type="text/css">
	.st0{fill:#FFFFFF;}
	.st1{clip-path:url(#SVGID_2_);fill:#FFFFFF;}
</style>
<g>
	<g>
		<path class="st0" d="M848.7,218.5l-3,3.9l-0.8-3c-0.1-0.5-0.3-1-0.4-1.5l-0.5-1.5l-0.9-3c-2.6-7.9-5.9-15.4-10-22.6
			c-8.1-14.3-18.8-26.9-31.3-37.2c-6.3-5.1-13-9.7-20.1-13.5c-7.1-3.8-14.6-7-22.3-9.5c-15.4-4.9-31.7-6.8-47.8-5.6
			c-16.1,1.2-32,5.5-46.5,12.8c-14.5,7.2-27.6,17.4-38.4,29.6l-2,2.3c-0.7,0.8-1.3,1.5-2,2.4l-1.9,2.4c-0.6,0.8-1.3,1.6-1.8,2.4
			l-1.8,2.5c-0.6,0.8-1.2,1.7-1.7,2.5l-1.6,2.6l-0.8,1.3l-0.4,0.7l-0.4,0.7c-4.1,7.1-7.6,14.5-10.4,22.3
			c-5.4,15.5-7.8,32.3-6.6,48.8c1.2,16.5,5.8,32.9,13.5,47.6c7.7,14.7,18.6,27.7,31.4,37.9c6.4,5.1,13.4,9.6,20.6,13.4
			c7.3,3.8,14.9,6.8,22.7,9.2c15.6,4.7,32,6.5,48.2,5.3c16.2-1.2,32.2-5.3,47.1-12.3c7.4-3.5,14.6-7.7,21.2-12.6l2.5-1.9l1.2-0.9
			c0.4-0.3,0.8-0.6,1.2-1l2.4-2l1.2-1l0.6-0.5l0.6-0.5l1.1,3.5l-1.1,1.1l-2.3,2.2c-0.4,0.4-0.8,0.7-1.2,1.1l-1.2,1.1l-2.4,2.1
			c-6.5,5.5-13.5,10.5-21.1,14.7c-15,8.4-31.9,13.7-49.2,15.3c-17.3,1.6-34.9-0.6-51.3-6.2c-16.4-5.6-31.5-14.6-44.3-26.1
			c-12.7-11.5-23.1-25.3-30.8-40.5c-7.6-15.2-12.4-31.8-14-48.7l-0.2-3.2c-0.1-1.1-0.2-2.1-0.2-3.2l-0.1-3.2c0-1.1-0.1-2.1,0-3.2
			l0-3.2c0-1.1,0-2.1,0.1-3.2l0.2-3.2l0.1-1.6l0.1-0.8l0.1-0.8c0.8-8.5,2.4-16.9,4.8-25.2c4.8-16.4,12.9-32.1,23.9-45.4
			c10.9-13.4,24.7-24.5,40.1-32.6c15.4-8.1,32.4-13.2,49.8-14.7c8.7-0.8,17.5-0.7,26.1,0.3c8.7,1,17.3,2.9,25.6,5.6
			c16.6,5.4,32.1,14.2,45.2,25.6c0.8,0.7,1.6,1.5,2.4,2.2l2.4,2.2l0.6,0.6l0.6,0.6l1.1,1.2l2.3,2.3l0.6,0.6l0.5,0.6l1.1,1.2l2.1,2.5
			c0.4,0.4,0.7,0.8,1,1.3l1,1.3l2,2.6c5.2,6.9,9.6,14.4,13.3,22.2c3.6,7.8,6.5,15.9,8.5,24.2l0.7,3.1l0.4,1.6
			C848.5,217.4,848.6,218,848.7,218.5"/>
	</g>
	<g>
		<defs>
			<path id="SVGID_1_" d="M805.4,280.2c-13.1,42.1,3.3,62.4,1.9,63.6c-33.3,28.7-79.8,40.8-124.7,26.4
				c-67.5-21.7-104.6-94-82.9-161.4c21.7-67.5,94-104.6,161.4-82.9c44.1,14.2,72.7,50.6,85.4,91.9
				C847.3,220.2,815.8,246.4,805.4,280.2z"/>
		</defs>
		<clipPath id="SVGID_2_">
			<use xlink:href="#SVGID_1_"  style="overflow:visible;"/>
		</clipPath>
		<path class="st1" d="M829.9,185.5l-16.3-5.3l-24.9-24.5l-6.1-1.9l-4.1,4.4l-13.8,1.3l0.4,13.4l-12.7,4.2l-19.4-6.2l-12.6,14.3
			l14.7,12.4l19.6-7l15.7,9.5l5,7.3l-5.2,5.9l11.5-2.6l-4.4-13.5l6.6,0.2l5.3,18.8l19.7,11.4l-5.8,9.6l-18.9-11.8l-10.6-0.2
			l-11.1-17.5l-23.1-4.9l-5.5-3.7l-14,6.3l-20.7,12.4l-1.5,12.9l-7.2,5.9l15.2,31.6l27.3,2.4l5.8,15.2l-3.1,9.8l3.3,18.8l-8.7,12.4
			l0.7,12.3l-3.4,14.8l8.8,7.9l30.6-14.3l2.4-9.4l11.1-3.4l6-6.3l2.8-15l25.5-21l-2.3-11.5l3.9-5.7l10,0l9-13.6l7.4,14.4
			C842.9,276,874.6,202.4,829.9,185.5z"/>
		<polygon class="st1" points="767.1,122.8 781.1,134 754.7,144.9 737.8,141.9 713.7,146.6 709.2,142.2 720.7,128.6 706.2,124 
			692.1,127.2 699,135.3 688.5,138.5 687.6,156 680.1,158.9 675.2,152 666.7,160 640.3,166.3 632.6,177.5 614.9,184.3 613.8,213.6 
			628.3,216.5 641,234.3 647.2,239.2 648,251.3 669.3,270.1 653.6,285.8 652.4,296.7 640.5,300.6 636,311 626.5,310.9 628.3,344.1 
			621.3,340.1 609.1,294.7 613,273.3 602.7,244.5 610.1,219.6 600.1,184.3 643.3,110.9 723.6,114.1 		"/>
		<polygon class="st1" points="757.8,156.9 751.6,157.3 752.5,164 744.4,168.8 754.4,172.6 761.6,165 		"/>
		<polygon class="st1" points="745.4,164 739.7,162.6 741.1,158.8 747.8,160.2 		"/>
		<polygon class="st1" points="799.6,319.7 785.8,340.2 796.3,343 808.2,334.9 813.9,315.9 		"/>
	</g>
	<g id="Page-1_12_">
		<path id="Combined-Shape_12_" class="st0" d="M271.8,119.1l-85.2,93.6L243,416.4h-61.3l-45.2-156.1l-42.8,41.3l0.6,114.9L25,414.1
			V85.9l69.4-17.6V208L211.6,96.1L271.8,119.1z M462.3,156.8c64.6-20.3,99-20,108.3,73.9l23,160.6h-61l-3.9-93l-5.7-66.1
			c-1.5-46.4-43.7-34.7-56.5-29l3.3,187.8l-58.3-2.1l-9.6-363.7l59.2-15.6L462.3,156.8z M1266.8,393.1h40.1l15.3,44l-35.9,21.2
			l-36.5-25.1L1266.8,393.1z M1111.9,68.3l-0.9,84.9l66.7,4.5v41.6l-64.9,3.6l5.4,125.6c0,0,0.3,9.9,20.6,9.9s39.2-11.1,39.2-11.1
			v64c0.9,19.4-26.9,27.8-26.9,27.8c-89.1,13.2-82.5-45.2-82.5-45.2l-3-162.4h-41.9l-9.9-68.2l51.7,1.8v-96L1111.9,68.3z M1341,68.9
			l-47.3,301.2l-75.4-324.5L1341,68.9z M257.1,158.9c0,0,118.7-52.3,132.8,41.9l-1.8,202.5h-90c0,0-39.5,1.5-51.7-42.2
			c0,0-30.5-111.3,89.7-132.5l0.3-27.2c0,0-22.7-24.2-63.1,0L257.1,158.9z M336.1,364.4l1.5-90.6c-49.1-7.2-49.9,58.6-49.9,58.6
			C292.4,374.9,336.1,364.4,336.1,364.4z"/>
	</g>
	<g>
		<g id="XMLID_37_">
			<path id="XMLID_38_" class="st0" d="M930.6,426.4c67.8-5.9,118.2-60.2,112.3-128c-5.9-67.8-65.8-113-133.7-107.1
				c-21.7,1.9-41.6,9.3-58.4,20.7c-35.9,24.3-58,61.6-54,107.8C802.7,387.5,862.7,432.2,930.6,426.4z M838.8,388.3
				c-14.9-15.2-25.6-34.6-30.1-56.5c4.2-14.1,13.3-24.2,13.3-24.2l24.8,6.7c0,0,3.8,16.9,19.3,42.4c-2.5,10.6-5.8,23.8-7.4,29.8
				C847.2,390.6,838.8,388.3,838.8,388.3z M860.9,396c8.7,6.9,30.8,16.9,39.2,20.6l-0.1,4.2c-19.2-3.4-36.9-11.7-51.6-23.7
				C854.1,398.7,860.9,396,860.9,396z M980.5,397l4.1,5.1c-0.4,0.3-0.8,0.6-1.2,0.9c-15.8,10.7-34.2,17.3-53.7,19
				c-6.8,0.6-13.5,0.6-20.1,0l0.1-4.8c15.2-4.2,29.3-13.9,33.3-16.8C943,400.3,958.6,404,980.5,397z M1001.5,259l-39.6-21.1
				c-2.3-13.8-10.6-28.9-10.6-28.9l9.2-6c25.2,9.7,46.3,28.2,59.2,52.1C1019.7,255.1,1013.4,253.8,1001.5,259z M952.4,240
				l-28.4,26.6c0,0-25.5-5.2-44.7-3.9l-11.7-29.8c0,0,11-15.7,26.2-24.1c6-0.4,28.2-1.7,48.1,2.5C951.7,222.6,952.4,240,952.4,240z
				 M943.8,390.6l-18.2-30.4c0,0,18.1-20,25.9-35.4l40.4-3.5c8.9,8.4,14.9,29.7,14.9,29.7c-5,14.8-21.7,31.9-26.2,36.3
				C980.6,387.4,960,395.6,943.8,390.6z M917.4,355.3c-21.2,0.6-37.3-2.1-42.9-3.2c-15.8-26-19.2-42.2-19.2-42.2
				c3.1-9.3,16.3-28.5,23-37.7c0,0,19.8-3.2,44.4,3.8l20.7,43.7C943.4,319.8,933.9,339.7,917.4,355.3z M1024,264
				c4.7,10.9,7.8,22.7,8.9,35.2c1.1,12.6,0.1,25.1-2.9,37.1l-15.9,8c-6-16.7-14.5-28.8-14.5-28.8l5.5-47.5
				C1005.2,268,1015,262.7,1024,264z M859.5,227.3c-11.1,3.4-21.7,9.7-28.6,14.4c-1.8,1.2-3.3,2.3-4.6,3.2c8-11.7,18.3-21.9,30.1-30
				c8.8-6,18.5-10.7,28.9-14l0.8,1.9C872.6,211.7,859.5,227.3,859.5,227.3z M806.6,315.7c-1.3-21.1,3.4-41.3,12.5-58.9
				c-6.5,23.1-5.2,39.1-4.5,44.3C814.6,301.1,809.5,308,806.6,315.7z"/>
		</g>
	</g>
</g>
</svg>
